<?xml version="1.0" encoding="utf-8"?>
<!-- Generator: Adobe Illustrator 21.1.0, SVG Export Plug-In . SVG Version: 6.00 Build 0)  -->
<!DOCTYPE svg PUBLIC "-//W3C//DTD SVG 1.1//EN" "http://www.w3.org/Graphics/SVG/1.1/DTD/svg11.dtd" [
	<!ENTITY ns_extend "http://ns.adobe.com/Extensibility/1.0/">
	<!ENTITY ns_ai "http://ns.adobe.com/AdobeIllustrator/10.0/">
	<!ENTITY ns_graphs "http://ns.adobe.com/Graphs/1.0/">
	<!ENTITY ns_vars "http://ns.adobe.com/Variables/1.0/">
	<!ENTITY ns_imrep "http://ns.adobe.com/ImageReplacement/1.0/">
	<!ENTITY ns_sfw "http://ns.adobe.com/SaveForWeb/1.0/">
	<!ENTITY ns_custom "http://ns.adobe.com/GenericCustomNamespace/1.0/">
	<!ENTITY ns_adobe_xpath "http://ns.adobe.com/XPath/1.0/">
]>
<svg version="1.1" id="Layer_1" xmlns:x="&ns_extend;" xmlns:i="&ns_ai;" xmlns:graph="&ns_graphs;"
	 xmlns="http://www.w3.org/2000/svg" xmlns:xlink="http://www.w3.org/1999/xlink" x="0px" y="0px" viewBox="0 0 82 82"
	 style="enable-background:new 0 0 82 82;" xml:space="preserve">
<style type="text/css">
	.st0{fill:#FFFFFF;}
	.st1{fill:none;stroke:url(#SVGID_1_);stroke-miterlimit:10;}
</style>
<switch>
	<g i:extraneous="self">
		<g>
                        <g transform="translate(12,12)">
                                <path class="st0" d="M8.5 2c.827 0 1.5.673 1.5 1.5v7.525c0 1.569.514 2.287 1.411 3.05 1.01.858 1.589 2.106 1.589 3.425 0 2.481-2.019
                                        4.5-4.5 4.5s-4.5-2.019-4.5-4.5c0-1.319.579-2.567 1.59-3.425.896-.761 1.41-1.48 1.41-3.05v-7.525c0-.827.673-1.5
                                        1.5-1.5zm0-2c-1.933 0-3.5 1.567-3.5 3.5v7.525c0 .587-.258 1.145-.705 1.525-1.403 1.192-2.295 2.965-2.295 4.95 0 3.59 2.909 6.5 6.5 6.5s6.5-2.91
                                        6.5-6.5c0-1.985-.892-3.758-2.295-4.95-.447-.38-.705-.938-.705-1.525v-7.525c0-1.933-1.567-3.5-3.5-3.5zm2.107
                                        14.718c-1.012-.89-1.607-1.734-1.607-3.22v-1.498h-1v1.498c0 1.484-.597 2.332-1.607 3.22-.794.698-1.393 1.642-1.393
                                        2.782 0 1.933 1.567 3.5 3.5 3.5s3.5-1.567 3.5-3.5c0-1.14-.599-2.083-1.393-2.782zm3.393-8.718v2h8v-2h-8z" transform="scale(2.5,2.5)" />
				<g id="Layer_1_2_">
				</g>
			</g>
			
				<linearGradient id="SVGID_1_" gradientUnits="userSpaceOnUse" x1="-2.180208e-02" y1="40.8391" x2="80.9782" y2="40.8391" gradientTransform="matrix(0.9999 1.092937e-02 -1.092937e-02 0.9999 0.9706 -0.279)">
				<stop  offset="0" style="stop-color:#00ADDC"/>
				<stop  offset="1" style="stop-color:#6BFBFF"/>
			</linearGradient>
			
				<ellipse transform="matrix(1.092937e-02 -0.9999 0.9999 1.092937e-02 -0.4457 81.5494)" class="st1" cx="41" cy="41" rx="40" ry="40"/>
		</g>
	</g>
</switch>
</svg>
